<?xml version="1.0" encoding="iso-8859-1"?>
<!-- Uploaded to: SVG Repo, www.svgrepo.com, Generator: SVG Repo Mixer Tools -->
<svg height="800px" width="800px" version="1.1" id="Layer_1" xmlns="http://www.w3.org/2000/svg" xmlns:xlink="http://www.w3.org/1999/xlink" 
	 viewBox="0 0 512 512" xml:space="preserve">
<circle style="fill:#273B7A;" cx="256" cy="256" r="256"/>
<path style="fill:#121149;" d="M181.872,299.672l-48.104,64.297l146.849,146.849c126.488-12.071,226.111-116.171,231.162-244.583
	l-81.665-81.665l-41.858,5.83l2.101-2.101l-43.748-42.512l-24.378,31.337l21.663,19.456l-26.409,3.679l-69.818,69.818
	l-50.183-51.971l-25.752,34.207l29.682,29.682l-18.61,18.61L181.872,299.672z"/>
<path style="fill:#FFC61B;" d="M263.716,279.824h-44.587c-12.312,0-22.294-9.981-22.294-22.294l0,0
	c0-12.312,9.981-22.294,22.294-22.294h44.587c12.312,0,22.294,9.981,22.294,22.294l0,0
	C286.01,269.843,276.03,279.824,263.716,279.824z"/>
<g>
	<path style="fill:#EAA22F;" d="M263.716,235.237h-22.082v44.587h22.082c12.312,0,22.294-9.981,22.294-22.294l0,0
		C286.01,245.219,276.03,235.237,263.716,235.237z"/>
	<path style="fill:#EAA22F;" d="M346.559,220.712l-27.782,28.462c-7.671,7.859-20.263,8.011-28.122,0.34l0,0
		c-7.859-7.671-8.011-20.263-0.34-28.122l27.782-28.462c7.671-7.859,20.263-8.011,28.122-0.34l0,0
		C354.08,200.261,354.232,212.852,346.559,220.712z"/>
	<path style="fill:#EAA22F;" d="M319.452,174.861l-28.462-27.782c-7.859-7.671-8.011-20.263-0.34-28.122l0,0
		c7.671-7.859,20.263-8.011,28.122-0.34l28.462,27.782c7.859,7.671,8.011,20.263,0.34,28.122l0,0
		C339.902,182.381,327.313,182.532,319.452,174.861z"/>
</g>
<path style="fill:#FFC61B;" d="M203.212,303.745l-38.391,54.765c-7.068,10.081-20.97,12.526-31.053,5.458l0,0
	c-10.081-7.068-12.524-20.97-5.458-31.051l38.391-54.765c7.068-10.081,20.97-12.526,31.053-5.458l0,0
	C207.836,279.761,210.279,293.664,203.212,303.745z"/>
<g>
	<path style="fill:#EAA22F;" d="M279.635,303.745l38.391,54.765c7.068,10.081,20.97,12.526,31.053,5.458l0,0
		c10.081-7.068,12.524-20.97,5.458-31.051l-38.391-54.765c-7.068-10.081-20.97-12.526-31.053-5.458l0,0
		C275.011,279.761,272.568,293.664,279.635,303.745z"/>
	<path style="fill:#EAA22F;" d="M426.667,181.122h-5.229c-1.614-8.425-9.011-14.793-17.904-14.793h-36.48
		c-10.074,0-18.241,8.166-18.241,18.241s8.166,18.241,18.241,18.241h36.48c8.894,0,16.291-6.368,17.904-14.791h5.229
		c1.903,0,3.448-1.545,3.448-3.448S428.57,181.122,426.667,181.122z"/>
</g>
<path style="fill:#FFC61B;" d="M192.429,213.209l-54.763-38.391c-8.901-6.239-20.77-5.056-28.294,2.239l-10.911-8.221
	c-1.52-1.146-3.682-0.843-4.829,0.681c-1.145,1.52-0.841,3.682,0.681,4.829l10.911,8.221c-5.26,9.807-2.491,22.214,6.849,28.762
	l54.763,38.391c10.081,7.068,23.985,4.624,31.051-5.458l0,0C204.953,234.179,202.511,220.277,192.429,213.209z"/>
</svg>