<?xml version="1.0" encoding="iso-8859-1"?>
<!-- Uploaded to: SVG Repo, www.svgrepo.com, Generator: SVG Repo Mixer Tools -->
<svg height="800px" width="800px" version="1.1" id="Layer_1" xmlns="http://www.w3.org/2000/svg" xmlns:xlink="http://www.w3.org/1999/xlink" 
	 viewBox="0 0 512 512" xml:space="preserve">
<circle style="fill:#FF7F4F;" cx="256" cy="256" r="256"/>
<path style="fill:#D35933;" d="M159.754,270.002l-3.884,7.577l-4.384,4.923l-37.997,63.567l164.895,164.895
	c120.466-10.711,216.924-104.851,231.2-224.256l-181.22-181.22l0.777,52.826h-48.38l-12.622,6.322l-24.207,5.139l-17.487,17.487
	l-12.914-12.914l-45.765,0.369l-16.649,18.747l35.612,35.612l-18.361,25.631L159.754,270.002z"/>
<circle style="fill:#D0D1D3;" cx="331.524" cy="277.583" r="75.035"/>
<path style="fill:#A6A8AA;" d="M331.519,202.543c-0.274,0-0.543,0.017-0.817,0.021v150.028c0.272,0.003,0.543,0.021,0.817,0.021
	c41.441,0,75.035-33.594,75.035-75.035C406.554,236.139,372.96,202.543,331.519,202.543z"/>
<path style="fill:#59595B;" d="M331.521,361.232c-46.128,0-83.654-37.528-83.654-83.652c0-46.128,37.528-83.654,83.654-83.654
	s83.653,37.528,83.653,83.654C415.173,323.705,377.646,361.232,331.521,361.232z M331.521,211.163
	c-36.621,0-66.415,29.794-66.415,66.415s29.794,66.413,66.415,66.413s66.413-29.793,66.413-66.413S368.142,211.163,331.521,211.163z
	"/>
<path style="fill:#272525;" d="M331.521,193.924c-0.274,0-0.543,0.017-0.817,0.021v17.239c0.272-0.003,0.543-0.021,0.817-0.021
	c36.621,0,66.413,29.794,66.413,66.415s-29.793,66.413-66.413,66.413c-0.274,0-0.543-0.017-0.817-0.021v17.239
	c0.272,0.002,0.543,0.021,0.817,0.021c46.127,0,83.653-37.528,83.653-83.652C415.173,231.452,377.646,193.924,331.521,193.924z"/>
<circle style="fill:#D0D1D3;" cx="144.755" cy="321.353" r="31.272"/>
<path style="fill:#A6A8AA;" d="M144.755,290.083c-0.467,0-0.921,0.05-1.383,0.071v62.388c0.462,0.021,0.915,0.071,1.383,0.071
	c17.267,0,31.265-13.998,31.265-31.265S162.021,290.083,144.755,290.083z"/>
<path style="fill:#59595B;" d="M144.755,361.232c-21.992,0-39.884-17.892-39.884-39.884s17.892-39.884,39.884-39.884
	s39.884,17.892,39.884,39.884S166.746,361.232,144.755,361.232z M144.755,298.703c-12.486,0-22.645,10.159-22.645,22.645
	s10.159,22.645,22.645,22.645s22.645-10.159,22.645-22.645S157.241,298.703,144.755,298.703z"/>
<path style="fill:#272525;" d="M144.755,281.464c-0.464,0-0.922,0.019-1.383,0.034v17.274c0.46-0.028,0.915-0.071,1.383-0.071
	c12.486,0,22.645,10.159,22.645,22.645s-10.159,22.645-22.645,22.645c-0.467,0-0.922-0.041-1.383-0.071v17.274
	c0.46,0.016,0.919,0.034,1.383,0.034c21.992,0,39.884-17.892,39.884-39.884S166.746,281.464,144.755,281.464z"/>
<path style="fill:#59595B;" d="M306.509,96.465c-3.332,0-6.034,2.701-6.034,6.034s2.701,6.034,6.034,6.034
	c10.464,0,18.978,8.513,18.978,18.978v19.089c-12.943,0.571-44.384,3.699-78.503,19.894c-18.958,8.997-40.384,22.985-59.499,44.646
	v-33.608c0-3.332-2.701-6.034-6.034-6.034c-3.332,0-6.034,2.701-6.034,6.034v48.852c-16.377,23-29.953,52.9-37.04,91.8
	c-0.598,3.277,1.576,6.42,4.855,7.016c0.365,0.067,0.729,0.1,1.088,0.1c2.858,0,5.399-2.041,5.929-4.954
	c12.483-68.508,46.621-116.533,101.462-142.739c31.663-15.129,61.5-18.261,73.775-18.896v118.87c0,3.332,2.701,6.034,6.034,6.034
	s6.034-2.701,6.034-6.034V127.51C337.555,110.392,323.627,96.465,306.509,96.465z"/>
<path style="fill:#386895;" d="M156.439,195.774c-4.284,0-7.758-3.474-7.758-7.758c0-10.059,8.183-18.242,18.242-18.242h39.539
	c4.284,0,7.758,3.474,7.758,7.758c0,4.284-3.474,7.758-7.758,7.758h-39.539c-1.503,0-2.727,1.224-2.727,2.727
	C164.197,192.302,160.723,195.774,156.439,195.774z"/>
</svg>